<svg width="268" height="268" viewBox="0 0 268 268" fill="none" xmlns="http://www.w3.org/2000/svg">
<g filter="url(#filter0_d_8_130)">
<circle cx="134" cy="126" r="42.5" stroke="#FF7F22" stroke-width="3"/>
<path d="M155.773 118.427C155.887 118.104 155.984 117.776 156.063 117.443C156.245 116.474 156.399 116.343 157.361 116.363C157.522 116.365 157.677 116.304 157.793 116.192C157.843 116.132 157.768 115.866 157.674 115.802C157.411 115.619 157.121 115.41 156.818 115.36C155.975 115.221 155.919 115.122 156.235 114.359C156.366 114.045 156.338 113.66 156.358 113.307C156.41 112.468 156.871 111.804 157.343 111.176C157.651 110.766 158.282 111.02 158.458 111.562C158.536 111.804 158.619 112.044 158.7 112.285L158.838 112.249C158.701 111.677 158.563 111.104 158.415 110.487C158.61 110.468 158.716 110.426 158.798 110.454C159.182 110.588 159.446 110.454 159.68 110.147C159.846 109.925 160.013 109.79 160.267 110.136C161.267 111.473 161.905 113.046 162.119 114.702C162.22 115.409 162.366 116.109 162.556 116.797C162.847 117.913 162.841 119.037 162.774 120.219C162.401 118.564 161.815 116.965 161.031 115.461L160.908 115.506C161.052 115.877 161.19 116.251 161.341 116.619C161.968 118.142 161.887 119.635 161.162 121.106C161.088 121.257 161.066 121.432 160.999 121.587C160.858 121.909 160.869 122.288 161.198 122.357C161.41 122.401 161.752 122.121 161.94 121.904C162.127 121.686 162.166 121.376 162.294 121.116C162.381 120.963 162.479 120.817 162.589 120.68L162.774 120.734C162.727 121.117 162.705 121.506 162.626 121.883C162.523 122.366 162.392 122.844 162.246 123.319C162.101 123.794 161.836 123.88 161.502 123.562C161.167 123.244 160.765 122.986 160.681 122.434C160.638 122.156 160.314 121.921 160.117 121.667C159.935 121.934 159.739 122.193 159.577 122.471C159.523 122.58 159.515 122.706 159.554 122.821C159.841 123.565 159.913 124.397 160.589 124.98C161.076 125.402 160.875 125.937 160.248 126.135C160.175 126.165 160.108 126.21 160.054 126.267C159.999 126.325 159.958 126.393 159.933 126.469C159.703 127.518 158.83 127.729 157.995 127.946C157.466 128.069 156.926 128.14 156.383 128.158C156.245 128.166 155.99 128.002 155.966 127.881C155.857 127.382 155.793 126.874 155.776 126.364C155.749 125.296 155.768 124.229 155.768 123.157C156.486 123.095 156.659 122.887 156.486 122.131C156.352 121.558 156.167 120.997 155.964 120.294L155.269 121.776C155.03 121.484 154.8 121.296 154.69 121.058C154.382 120.392 154.074 119.718 153.887 119.017C153.777 118.607 153.868 118.14 153.923 117.704C153.935 117.601 154.15 117.46 154.287 117.441C154.766 117.374 155.274 117.726 155.464 118.203C155.501 118.276 155.545 118.345 155.594 118.409L155.773 118.427ZM160.23 114.605L160.392 114.488C160.106 114.091 159.82 113.694 159.535 113.298L159.373 113.415C159.657 113.811 159.943 114.208 160.23 114.605Z" fill="#FF7F22"/>
<path d="M152.671 114.19C152.754 113.473 152.779 112.918 152.892 112.388C152.963 112.092 153.11 111.819 153.32 111.599C153.935 110.952 154.448 110.266 154.756 109.398C155.045 108.565 155.689 107.996 156.646 108.017C156.913 108.017 157.261 108.172 157.41 108.375C157.505 108.503 157.373 108.899 157.231 109.093C156.761 109.721 156.555 110.445 156.271 111.157C155.696 112.593 155.791 114.131 155.392 115.588C155.304 115.91 155.044 116.415 154.832 116.431C154.203 116.481 153.431 116.559 153.11 115.798C152.872 115.24 152.784 114.624 152.671 114.19Z" fill="#FF7F22"/>
<path d="M152.098 142.886C152.039 143.251 152.048 143.509 151.952 143.718C151.688 144.326 151.385 144.916 151.044 145.483C150.825 145.832 150.453 146.081 150.188 146.406C149.797 146.872 149.434 147.36 149.099 147.867C148.724 148.45 148.448 149.098 148.053 149.668C147.777 150.065 147.39 150.394 147.018 150.713C146.469 151.194 145.896 151.647 145.301 152.069C145.009 152.274 144.612 152.319 144.296 152.495C144.034 152.642 143.7 152.831 143.611 153.078C143.347 153.809 142.625 153.728 142.121 154.019C142.112 154.024 141.873 153.746 141.905 153.687C142.16 153.178 142.449 152.688 142.772 152.219C144.052 150.452 145.796 149.149 147.351 147.654C148.243 146.796 149.059 145.858 149.915 144.961C150.523 144.323 151.139 143.694 151.756 143.064C151.798 143.021 151.864 143.004 152.098 142.886Z" fill="#FF7F22"/>
<path d="M110.437 113.741C110.63 113.756 110.738 113.732 110.797 113.776C111.302 114.155 111.817 114.526 112.291 114.944C112.479 115.11 112.394 115.3 112.132 115.407C111.332 115.74 110.543 116.101 109.743 116.433C109.231 116.647 108.508 116.195 108.301 115.55C108.115 114.967 108.404 114.517 109.03 114.332C109.354 114.235 109.655 114.063 109.968 113.93C110.153 113.851 110.339 113.78 110.437 113.741Z" fill="#FF7F22"/>
<path d="M149.244 152.639C148.692 153.406 148.14 154.173 147.588 154.94C147.167 155.523 146.78 156.133 146.312 156.674C145.904 157.129 145.453 157.543 144.965 157.911C144.745 158.083 144.495 158.014 144.519 157.635C144.535 157.398 144.533 157.161 144.557 156.925C144.611 156.412 144.615 155.954 145.241 155.643C145.848 155.342 146.292 154.72 146.83 154.269C147.488 153.716 148.163 153.185 148.844 152.652C148.94 152.596 149.044 152.554 149.152 152.526L149.244 152.639Z" fill="#FF7F22"/>
<path d="M149.445 150.067C149.138 150.506 148.914 150.868 148.654 151.206C148.301 151.664 147.936 152.111 147.548 152.539C147.474 152.622 147.301 152.617 147.174 152.653C147.12 152.454 146.961 152.2 147.032 152.067C147.244 151.667 147.493 151.257 147.824 150.959C148.206 150.615 148.689 150.385 149.132 150.111C149.18 150.084 149.254 150.094 149.445 150.067Z" fill="#FF7F22"/>
<path d="M110.643 119.475L110.836 118.871C111.049 118.936 111.257 119.016 111.458 119.112C111.692 119.247 111.912 119.404 112.117 119.579C112.21 119.657 112.322 119.803 112.305 119.897C112.288 119.992 112.134 120.083 112.02 120.129C111.863 120.189 111.698 120.227 111.531 120.243C110.814 120.319 110.685 120.2 110.643 119.475Z" fill="#FF7F22"/>
<path d="M115.003 118.858C115.158 118.32 115.31 117.801 115.459 117.286C116.018 117.37 116.506 117.799 116.478 118.148C116.438 118.68 116.007 118.9 115.003 118.858Z" fill="#FF7F22"/>
<path d="M114.079 119.201C114.419 119.257 114.662 119.26 114.871 119.345C114.942 119.379 115.003 119.428 115.053 119.488C115.102 119.549 115.137 119.62 115.156 119.695C115.171 119.788 115.004 119.994 114.906 120.003C114.667 120.024 114.353 120.036 114.2 119.9C114.07 119.777 114.117 119.456 114.079 119.201Z" fill="#FF7F22"/>
<path d="M113.046 117.914C113.134 117.561 113.164 117.202 113.608 117.165C113.638 117.165 113.746 117.392 113.71 117.473C113.609 117.737 113.614 118.196 113.046 117.914Z" fill="#FF7F22"/>
<path d="M116.711 132.509L117.389 132.859C117.331 132.943 117.287 133.087 117.211 133.1C116.87 133.159 116.672 133.001 116.711 132.509Z" fill="#FF7F22"/>
<path d="M131.585 111.919C131.416 111.698 131.269 111.551 131.289 111.523C131.467 111.281 131.663 111.053 131.874 110.839C131.969 110.895 132.055 110.964 132.13 111.045C131.986 111.304 131.822 111.555 131.585 111.919Z" fill="#FF7F22"/>
<path fill-rule="evenodd" clip-rule="evenodd" d="M107.33 108.251C107.254 108.397 107.188 108.547 107.131 108.702C107.037 108.996 107.012 109.311 106.986 109.627C106.973 109.79 106.96 109.954 106.937 110.115C106.879 110.538 107.184 111.123 107.638 111.184C107.844 111.212 108.158 110.927 108.317 110.707C108.747 110.114 109.426 109.901 110.027 109.824C110.687 109.739 111.372 109.821 112.051 109.903C112.242 109.926 112.433 109.949 112.622 109.968C113.29 110.036 113.894 110.68 114.099 111.37C114.152 111.55 114.391 111.706 114.578 111.809C114.687 111.871 114.811 111.914 114.934 111.957C115.111 112.018 115.285 112.079 115.411 112.196C116.473 113.188 116.955 114.505 117.347 115.854C117.489 116.306 117.548 116.78 117.521 117.252C117.433 118.271 117.302 119.287 117.172 120.302C117.134 120.597 117.096 120.892 117.059 121.186C117.036 121.369 117.016 121.553 116.996 121.737C116.937 122.276 116.877 122.818 116.745 123.34C116.651 123.708 116.503 124.062 116.354 124.417C116.234 124.703 116.113 124.989 116.022 125.284C115.925 125.597 115.863 125.922 115.801 126.246C115.747 126.526 115.694 126.806 115.618 127.079C115.424 127.78 115.676 128.522 116.331 128.768C116.963 129.009 117.636 129.121 118.312 129.1C118.988 129.079 119.653 128.925 120.269 128.645C120.796 128.394 121.381 128.288 121.963 128.338C122.071 128.347 122.178 128.383 122.284 128.418C122.408 128.459 122.531 128.5 122.655 128.5C123.887 128.521 125.103 128.78 126.236 129.264C126.513 129.378 127.021 129.273 127.261 129.07C127.501 128.867 127.686 128.37 127.604 128.085C127.473 127.632 127.608 127.292 127.749 126.937C127.774 126.873 127.8 126.808 127.824 126.742C127.849 126.748 127.871 126.751 127.89 126.753C127.923 126.758 127.945 126.761 127.954 126.774C128.653 127.754 129.176 128.768 128.858 130.047C128.808 130.287 128.71 130.514 128.569 130.714C128.427 130.914 128.247 131.083 128.037 131.21C127.572 131.491 127.083 131.785 126.57 131.921C126.133 132.036 125.667 132.044 125.205 132.052C125.088 132.054 124.972 132.056 124.856 132.06C124.791 132.049 124.729 132.022 124.677 131.981C124.625 131.94 124.584 131.887 124.558 131.827C124.534 131.741 124.644 131.575 124.739 131.509C124.942 131.353 125.168 131.23 125.408 131.143L125.428 131.137C125.723 131.044 125.982 130.963 125.876 130.568C125.789 130.246 125.558 130.272 125.331 130.298C125.287 130.303 125.243 130.308 125.201 130.31C125.027 130.319 124.853 130.328 124.679 130.337C124.072 130.368 123.465 130.4 122.859 130.448C122.54 130.492 122.224 130.554 121.912 130.634C121.939 130.731 121.973 130.825 122.014 130.917C122.415 131.565 122.388 131.594 121.8 132.059C121.707 132.137 121.63 132.233 121.576 132.342C121.521 132.451 121.489 132.57 121.482 132.691C121.494 132.964 121.557 133.234 121.619 133.505C121.656 133.666 121.693 133.827 121.72 133.989C121.807 134.52 121.548 134.727 121.046 134.651C120.775 134.613 120.499 134.673 120.27 134.822C120.01 135.014 119.965 135.34 120.197 135.643C120.239 135.716 120.265 135.798 120.272 135.882C120.316 136.092 120.357 136.304 120.398 136.515C120.488 136.981 120.579 137.446 120.7 137.903C120.794 138.261 121.034 138.574 121.473 138.499C121.893 138.428 122.306 138.269 122.182 137.71C122.067 137.154 121.916 136.606 121.729 136.07C121.559 135.598 121.854 135.375 122.153 135.213C122.515 135.017 122.696 135.331 122.853 135.602L122.857 135.609C122.885 135.657 122.913 135.705 122.941 135.753C123.057 135.952 123.174 136.151 123.281 136.356C123.33 136.447 123.384 136.538 123.439 136.629C123.588 136.877 123.738 137.127 123.77 137.389C123.839 137.96 124.118 138.026 124.598 138.005C126 137.942 127.401 137.909 128.804 137.877L128.937 137.874C129.113 137.869 129.291 137.88 129.468 137.89C129.735 137.907 130.001 137.923 130.261 137.887C130.932 137.782 131.598 137.643 132.255 137.469C132.445 137.423 132.629 137.355 132.814 137.286C132.971 137.228 133.129 137.17 133.289 137.125C133.808 136.981 134.33 136.848 134.859 136.745C134.969 136.724 135.093 136.766 135.215 136.807C135.259 136.822 135.302 136.836 135.345 136.848C135.727 136.952 136.11 137.056 136.489 137.171C136.547 137.188 136.607 137.203 136.669 137.218C136.85 137.263 137.036 137.309 137.152 137.421C137.712 137.963 138.225 138.54 138.737 139.124C138.775 139.186 138.798 139.256 138.804 139.329C138.81 139.401 138.799 139.475 138.772 139.542C138.721 139.645 138.526 139.77 138.423 139.747C138.058 139.666 137.705 139.558 137.351 139.45C137.241 139.416 137.132 139.383 137.023 139.35C136.883 139.291 136.737 139.245 136.589 139.213C135.67 139.105 134.742 139.299 133.943 139.764C133.63 139.96 133.297 140.121 132.949 140.245C132.091 140.516 131.248 140.806 130.509 141.345C130.335 141.473 130.112 141.617 129.914 141.612C129.408 141.6 128.991 141.718 128.786 142.209C128.611 142.641 128.471 143.087 128.366 143.542C128.339 143.656 128.463 143.829 128.555 143.943C128.936 144.409 129.478 144.479 129.997 144.359C130.377 144.272 130.533 144.386 130.582 144.694C130.642 145.114 130.679 145.538 130.694 145.962C130.715 146.351 130.526 146.55 130.126 146.602C129.825 146.642 129.533 146.728 129.259 146.858C128.921 147.007 128.607 147.205 128.326 147.444C128.241 147.521 128.113 147.572 127.984 147.622C127.664 147.748 127.338 147.876 127.65 148.432C127.564 148.472 127.465 148.499 127.367 148.526C127.083 148.603 126.805 148.679 126.874 149.087C126.962 149.595 126.665 149.752 126.298 149.812C125.761 149.9 125.729 150.179 125.863 150.618C126.002 151.07 126.132 151.525 126.263 151.979C126.379 152.385 126.495 152.79 126.617 153.194C126.635 153.253 126.701 153.297 126.767 153.342C126.798 153.362 126.828 153.383 126.854 153.405C126.879 153.368 126.91 153.332 126.942 153.296C127.01 153.218 127.078 153.141 127.078 153.06C127.091 152.697 127.093 152.333 127.095 151.97C127.097 151.633 127.1 151.297 127.11 150.961C127.114 150.861 127.167 150.763 127.221 150.665C127.246 150.619 127.271 150.573 127.291 150.527C127.423 150.611 127.551 150.703 127.672 150.802C127.789 150.908 127.901 151.019 128.013 151.13C128.214 151.328 128.414 151.526 128.635 151.696C128.863 151.866 128.966 152.001 128.863 152.285C128.615 152.969 128.683 153.086 129.418 153.197C129.688 153.226 129.961 153.221 130.23 153.182C130.495 153.158 130.758 153.126 131.022 153.094C131.411 153.047 131.8 153 132.19 152.977C132.313 152.969 132.439 153.034 132.567 153.099C132.639 153.136 132.712 153.174 132.786 153.199C132.851 153.221 132.923 153.253 132.995 153.286C133.179 153.368 133.368 153.453 133.478 153.394C133.872 153.184 134.285 152.906 134.527 152.546C134.756 152.206 134.947 152.175 135.31 152.197C135.739 152.221 136.182 152.133 136.606 152.039C136.805 151.995 136.994 151.908 137.184 151.821C137.275 151.779 137.365 151.737 137.457 151.7C137.555 151.661 137.668 151.63 137.781 151.599C138.026 151.532 138.271 151.465 138.351 151.312C138.567 150.893 138.863 150.666 139.246 150.46C139.448 150.334 139.613 150.157 139.726 149.948C139.853 149.727 139.853 149.494 139.545 149.364C138.93 149.108 138.897 148.979 139.369 148.492C139.492 148.367 139.662 148.285 139.832 148.203C139.889 148.176 139.946 148.148 140.001 148.119C140.183 148.022 140.367 147.929 140.551 147.835C140.784 147.717 141.017 147.598 141.246 147.474C141.368 147.408 141.486 147.333 141.604 147.258C141.802 147.133 142 147.008 142.215 146.924C142.287 146.896 142.36 146.869 142.432 146.842C142.967 146.643 143.492 146.446 143.753 145.848C143.778 145.79 143.836 145.749 143.894 145.708C143.923 145.687 143.952 145.666 143.977 145.643C144.08 145.55 144.184 145.457 144.288 145.365C144.546 145.137 144.804 144.909 145.039 144.66C145.279 144.405 145.435 144.416 145.566 144.723C145.64 144.899 145.701 145.08 145.771 145.288C145.805 145.387 145.84 145.493 145.88 145.607C146.153 144.761 146.539 144.089 147.257 143.65C147.297 143.618 147.33 143.579 147.353 143.534C147.376 143.488 147.39 143.439 147.392 143.388C147.399 142.98 147.671 142.759 147.94 142.541C147.959 142.525 147.978 142.509 147.997 142.494C148.06 142.442 148.127 142.391 148.196 142.339C148.44 142.154 148.697 141.961 148.777 141.716C148.977 141.121 149.104 140.502 149.23 139.881C149.271 139.68 149.312 139.479 149.356 139.278C149.373 139.203 149.373 139.126 149.373 139.049C149.373 138.971 149.372 138.894 149.39 138.819C149.448 138.575 149.511 138.332 149.574 138.088C149.799 137.219 150.025 136.347 150.02 135.435C150.015 134.449 149.993 133.463 149.943 132.479C149.936 132.348 149.737 132.196 149.593 132.109C149.266 131.909 149.03 131.7 149.096 131.254C149.12 131.091 149.077 130.917 149.041 130.769C149.026 130.708 149.012 130.652 149.004 130.602H148.175C148.195 130.523 148.215 130.443 148.234 130.363C148.276 130.195 148.317 130.026 148.366 129.861C148.415 129.699 148.483 129.535 148.552 129.371C148.698 129.02 148.843 128.669 148.795 128.347C148.728 127.901 148.51 127.477 148.292 127.053C148.193 126.862 148.095 126.671 148.011 126.478C147.983 126.415 147.951 126.351 147.919 126.287C147.833 126.113 147.746 125.938 147.735 125.76C147.674 124.779 147.644 123.795 147.632 122.812C147.628 122.508 147.644 122.204 147.66 121.9C147.674 121.629 147.689 121.359 147.689 121.089C147.688 121.019 147.689 120.948 147.691 120.877C147.696 120.535 147.702 120.179 147.569 119.897C147.378 119.491 147.436 119.262 147.755 119.018C148.074 118.774 148.21 118.473 148.259 118.063C148.303 117.697 148.398 117.339 148.493 116.981C148.536 116.819 148.579 116.658 148.617 116.496C148.637 116.435 148.643 116.369 148.632 116.305C148.577 116.12 148.518 115.935 148.459 115.751C148.41 115.598 148.362 115.445 148.315 115.292C148.051 114.43 148.312 113.513 148.946 113.295C149.278 113.18 149.353 113.014 149.368 112.706C149.385 112.379 149.413 112.053 149.441 111.726C149.469 111.393 149.497 111.059 149.514 110.725C149.519 110.624 149.476 110.522 149.433 110.42C149.41 110.364 149.386 110.308 149.37 110.252C149.35 110.179 149.326 110.106 149.303 110.034C149.244 109.851 149.184 109.668 149.175 109.484C149.17 109.397 149.166 109.31 149.162 109.224C149.144 108.869 149.127 108.516 149.081 108.171C147.623 107.156 145.103 105.919 140.862 105.048H139.411C139.775 105.44 140.033 105.918 140.162 106.437C140.21 106.612 140.4 106.748 140.614 106.901C140.716 106.974 140.825 107.052 140.925 107.139C140.877 107.161 140.827 107.19 140.778 107.219C140.671 107.281 140.57 107.34 140.515 107.311C140.175 107.137 139.82 106.95 139.554 106.685C139.179 106.317 138.834 105.916 138.488 105.515C138.352 105.358 138.216 105.2 138.078 105.044H129.668C129.453 105.121 129.237 105.198 129.022 105.275C128.419 105.491 127.816 105.706 127.218 105.933C127.095 105.98 126.981 106.052 126.867 106.125C126.739 106.206 126.612 106.287 126.472 106.331L126.426 106.346C125.88 106.518 125.325 106.694 124.761 106.764C124.399 106.809 124.031 106.805 123.663 106.802C123.401 106.799 123.14 106.797 122.88 106.812C122.803 106.816 122.733 106.886 122.661 106.957C122.61 107.008 122.557 107.061 122.5 107.091L122.497 107.093C122.36 107.166 122.165 107.27 122.056 107.222C121.911 107.159 121.714 106.945 121.73 106.822C121.771 106.519 123.154 105.557 124.522 104.605C124.815 104.4 125.108 104.197 125.387 104C114.685 104.348 109.618 106.615 107.33 108.251ZM134.195 110.098C134.384 110.12 134.573 110.131 134.763 110.129L134.066 109.376L134.134 109.256L136.516 110.076C136.531 110.083 136.557 110.093 136.557 110.106C136.605 110.254 136.656 110.402 136.708 110.55C136.837 110.924 136.967 111.299 137.053 111.682C137.092 111.851 137.057 112.036 137.018 112.24C137 112.338 136.981 112.44 136.968 112.547C136.12 113.036 135.404 112.934 134.74 112.154C134.486 111.856 134.233 111.847 133.949 112.093C133.941 112.099 133.932 112.106 133.923 112.113C133.893 112.136 133.859 112.162 133.846 112.195C133.574 112.926 132.934 113.115 132.309 113.299C132.215 113.327 132.122 113.355 132.03 113.384C131.738 113.467 131.424 113.436 131.154 113.296C130.674 113.008 130.231 112.664 129.833 112.27C129.516 111.96 129.234 111.901 128.889 112.142C128.425 112.467 127.983 112.813 127.912 113.445C127.863 113.808 127.958 114.175 128.177 114.468C128.395 114.762 128.72 114.958 129.082 115.015C129.159 115.039 129.233 115.074 129.302 115.117C128.844 115.7 128.425 115.751 127.764 115.298C127.73 115.274 127.697 115.251 127.664 115.228C127.368 115.018 127.13 114.85 126.667 115.14C126.034 115.537 125.556 115.154 125.539 114.408C125.535 114.208 125.523 114.008 125.511 113.807C125.497 113.551 125.482 113.294 125.482 113.038C125.482 112.856 125.527 112.676 125.615 112.516C125.696 112.376 125.794 112.247 125.893 112.117C125.981 112.001 126.07 111.885 126.145 111.76C126.926 110.481 128.089 109.727 129.49 109.293C129.522 109.283 129.561 109.297 129.618 109.317C129.65 109.328 129.687 109.341 129.732 109.353L129.153 109.866C129.158 109.895 129.162 109.923 129.167 109.952C129.171 109.98 129.175 110.009 129.18 110.037C129.318 110.043 129.456 110.054 129.594 110.064C129.898 110.088 130.203 110.111 130.503 110.083L130.543 110.079C131.76 109.962 132.978 109.845 134.195 110.098Z" fill="#FF7F22"/>
</g>
<defs>
<filter id="filter0_d_8_130" x="-74" y="-20" width="416" height="308" filterUnits="userSpaceOnUse" color-interpolation-filters="sRGB">
<feFlood flood-opacity="0" result="BackgroundImageFix"/>
<feColorMatrix in="SourceAlpha" type="matrix" values="0 0 0 0 0 0 0 0 0 0 0 0 0 0 0 0 0 0 127 0" result="hardAlpha"/>
<feOffset dy="8"/>
<feGaussianBlur stdDeviation="45"/>
<feColorMatrix type="matrix" values="0 0 0 0 1 0 0 0 0 0.497333 0 0 0 0 0.133333 0 0 0 1 0"/>
<feBlend mode="normal" in2="BackgroundImageFix" result="effect1_dropShadow_8_130"/>
<feBlend mode="normal" in="SourceGraphic" in2="effect1_dropShadow_8_130" result="shape"/>
</filter>
</defs>
</svg>
